<?xml version="1.0"?><svg width="640" height="480" xmlns="http://www.w3.org/2000/svg" xmlns:xlink="http://www.w3.org/1999/xlink">
 <title>New Yes button</title>
 <defs>
  <linearGradient id="linearGradient3860">
   <stop offset="0" id="stop3862" stop-color="#ffffff"/>
   <stop offset="1" id="stop3864" stop-opacity="0" stop-color="#fffffe"/>
  </linearGradient>
  <linearGradient xlink:href="#linearGradient3860" id="linearGradient3866" x1="0.476199" y1="1.02073" x2="0.476199" y2="-0.068159"/>
  <linearGradient xlink:href="#linearGradient3860" id="linearGradient3872" x1="0.464398" y1="-0.033358" x2="0.462347" y2="1.003171"/>
 </defs>
 <metadata id="metadata7">image/svg+xml</metadata>
 <g>
  <title>Layer 1</title>
  <use stroke-width="0" x="-23.759859" y="7.371166" xlink:href="#rect3069" id="use3846" width="1" height="1" stroke="#e56317" fill="#7f7f7f" transform="matrix(0.724377,0,0,0.648967,96.326,60.5033) "/>
  <g id="layer1" display="none">
   <rect id="rect3069" width="625.71429" height="322.85715" x="0.5" y="0.500005" ry="74.892807"/>
  </g>
  <text transform="matrix(1.009260301331043,0,0,1.42815,40.87529594770713,-72.8066) " fill="#ffffff" stroke-width="0" x="270.94488" y="197.277776" id="svg_1" font-size="100" font-family="Serif" text-anchor="middle" xml:space="preserve" font-weight="bold">Save</text>
  <g id="svg_2">
   <path d="m81.825897,59.19836c-39.018997,0 -70.458597,23.177723 -70.458597,51.973156l0,4.596634c29.140001,-5.122757 63.290598,-9.68132 95.198702,-10.354202c77.430992,-1.633049 119.458,17.962875 194.676003,14.697479c75.217987,-3.265427 108.390991,-29.40464 174.76001,-31.036995c61.231995,-1.506371 96.088989,30.35302 139.34198,37.855789l0,-15.758705c0,-28.795433 -31.404968,-51.973156 -70.424011,-51.973156l-463.094086,0l0,0l0,0l0,0l0,0l0,0z" id="path3870" stroke-width="0.983728" fill="url(#linearGradient3872)" opacity="0.5"/>
   <path d="m487.137207,244.78688c-52.031006,0.191452 -128.394196,6.858643 -188.138092,10.827866c-42.076447,2.795471 -97.809296,0.061066 -109.093414,-3.024551c-30.659668,-8.38356 -78.81778,-9.767883 -137.94714,-2.781555c-3.582031,0.423203 -24.68548,2.243439 -28.22414,2.694016c12.665279,11.024872 33.13908,18.154724 56.29937,18.154724l458.42318,0c24.575806,0 46.092041,-8.038818 58.501221,-20.229538c-22.682007,-1.072067 -50.388062,-2.607727 -80.7229,-4.819656c-8.383453,-0.611298 -18.20813,-0.861359 -29.098083,-0.821304z" id="use3852" stroke-width="0.905445" fill="url(#linearGradient3866)" opacity="0.5"/>
  </g>
 </g>
</svg>